<mxfile host="app.diagrams.net" modified="2024-03-01T08:49:12.637Z" agent="Mozilla/5.0 (Macintosh; Intel Mac OS X 10_15_7) AppleWebKit/537.36 (KHTML, like Gecko) Chrome/120.0.0.0 Whale/3.24.223.18 Safari/537.36" etag="mITOomEshSQwlo1gDfB-" version="23.1.5" type="github">
  <diagram name="페이지-1" id="QFWL-PfNEV1lDPDZixy_">
    <mxGraphModel dx="524" dy="997" grid="1" gridSize="10" guides="1" tooltips="1" connect="1" arrows="1" fold="1" page="1" pageScale="1" pageWidth="1169" pageHeight="827" math="0" shadow="0">
      <root>
        <mxCell id="0" />
        <mxCell id="1" parent="0" />
        <mxCell id="0EJe0mb0kzmUWu9g-wrl-1" value="" style="rounded=1;whiteSpace=wrap;html=1;fillColor=#f8cecc;strokeColor=#b85450;" vertex="1" parent="1">
          <mxGeometry x="70" y="200" width="250" height="160" as="geometry" />
        </mxCell>
        <mxCell id="0EJe0mb0kzmUWu9g-wrl-2" value="&lt;b style=&quot;font-size: 15px;&quot;&gt;Kafka Broker&lt;br&gt;Node 1&lt;/b&gt;" style="text;html=1;align=center;verticalAlign=middle;whiteSpace=wrap;rounded=0;" vertex="1" parent="1">
          <mxGeometry x="140" y="210" width="110" height="30" as="geometry" />
        </mxCell>
        <mxCell id="0EJe0mb0kzmUWu9g-wrl-3" value="" style="rounded=0;whiteSpace=wrap;html=1;fillColor=#d5e8d4;strokeColor=#82b366;" vertex="1" parent="1">
          <mxGeometry x="90" y="280" width="70" height="70" as="geometry" />
        </mxCell>
        <mxCell id="0EJe0mb0kzmUWu9g-wrl-4" value="message 1" style="text;html=1;align=center;verticalAlign=middle;whiteSpace=wrap;rounded=0;" vertex="1" parent="1">
          <mxGeometry x="90" y="300" width="70" height="30" as="geometry" />
        </mxCell>
        <mxCell id="0EJe0mb0kzmUWu9g-wrl-5" value="&lt;b&gt;1&lt;/b&gt;" style="text;html=1;align=center;verticalAlign=middle;whiteSpace=wrap;rounded=0;" vertex="1" parent="1">
          <mxGeometry x="130" y="280" width="30" height="30" as="geometry" />
        </mxCell>
        <mxCell id="0EJe0mb0kzmUWu9g-wrl-9" value="" style="rounded=0;whiteSpace=wrap;html=1;fillColor=#d5e8d4;strokeColor=#82b366;" vertex="1" parent="1">
          <mxGeometry x="160" y="280" width="70" height="70" as="geometry" />
        </mxCell>
        <mxCell id="0EJe0mb0kzmUWu9g-wrl-10" value="message 2" style="text;html=1;align=center;verticalAlign=middle;whiteSpace=wrap;rounded=0;" vertex="1" parent="1">
          <mxGeometry x="160" y="300" width="70" height="30" as="geometry" />
        </mxCell>
        <mxCell id="0EJe0mb0kzmUWu9g-wrl-11" value="&lt;b&gt;2&lt;/b&gt;" style="text;html=1;align=center;verticalAlign=middle;whiteSpace=wrap;rounded=0;" vertex="1" parent="1">
          <mxGeometry x="200" y="280" width="30" height="30" as="geometry" />
        </mxCell>
        <mxCell id="0EJe0mb0kzmUWu9g-wrl-12" value="" style="rounded=0;whiteSpace=wrap;html=1;fillColor=#d5e8d4;strokeColor=#82b366;" vertex="1" parent="1">
          <mxGeometry x="230" y="280" width="70" height="70" as="geometry" />
        </mxCell>
        <mxCell id="0EJe0mb0kzmUWu9g-wrl-13" value="message 3" style="text;html=1;align=center;verticalAlign=middle;whiteSpace=wrap;rounded=0;" vertex="1" parent="1">
          <mxGeometry x="230" y="300" width="70" height="30" as="geometry" />
        </mxCell>
        <mxCell id="0EJe0mb0kzmUWu9g-wrl-14" value="&lt;b&gt;3&lt;/b&gt;" style="text;html=1;align=center;verticalAlign=middle;whiteSpace=wrap;rounded=0;" vertex="1" parent="1">
          <mxGeometry x="270" y="280" width="30" height="30" as="geometry" />
        </mxCell>
        <mxCell id="0EJe0mb0kzmUWu9g-wrl-15" value="Partition Leader Replica" style="text;html=1;align=center;verticalAlign=middle;whiteSpace=wrap;rounded=0;" vertex="1" parent="1">
          <mxGeometry x="125" y="250" width="140" height="30" as="geometry" />
        </mxCell>
        <mxCell id="0EJe0mb0kzmUWu9g-wrl-42" value="" style="rounded=1;whiteSpace=wrap;html=1;fillColor=#f8cecc;strokeColor=#b85450;" vertex="1" parent="1">
          <mxGeometry x="360" y="200" width="250" height="160" as="geometry" />
        </mxCell>
        <mxCell id="0EJe0mb0kzmUWu9g-wrl-43" value="&lt;b style=&quot;font-size: 15px;&quot;&gt;Kafka Broker&lt;br&gt;Node 2&lt;/b&gt;" style="text;html=1;align=center;verticalAlign=middle;whiteSpace=wrap;rounded=0;" vertex="1" parent="1">
          <mxGeometry x="430" y="210" width="110" height="30" as="geometry" />
        </mxCell>
        <mxCell id="0EJe0mb0kzmUWu9g-wrl-44" value="" style="rounded=0;whiteSpace=wrap;html=1;fillColor=#d5e8d4;strokeColor=#82b366;" vertex="1" parent="1">
          <mxGeometry x="380" y="280" width="70" height="70" as="geometry" />
        </mxCell>
        <mxCell id="0EJe0mb0kzmUWu9g-wrl-45" value="message 1" style="text;html=1;align=center;verticalAlign=middle;whiteSpace=wrap;rounded=0;" vertex="1" parent="1">
          <mxGeometry x="380" y="300" width="70" height="30" as="geometry" />
        </mxCell>
        <mxCell id="0EJe0mb0kzmUWu9g-wrl-46" value="&lt;b&gt;1&lt;/b&gt;" style="text;html=1;align=center;verticalAlign=middle;whiteSpace=wrap;rounded=0;" vertex="1" parent="1">
          <mxGeometry x="420" y="280" width="30" height="30" as="geometry" />
        </mxCell>
        <mxCell id="0EJe0mb0kzmUWu9g-wrl-47" value="" style="rounded=0;whiteSpace=wrap;html=1;fillColor=#d5e8d4;strokeColor=#82b366;" vertex="1" parent="1">
          <mxGeometry x="450" y="280" width="70" height="70" as="geometry" />
        </mxCell>
        <mxCell id="0EJe0mb0kzmUWu9g-wrl-48" value="message 2" style="text;html=1;align=center;verticalAlign=middle;whiteSpace=wrap;rounded=0;" vertex="1" parent="1">
          <mxGeometry x="450" y="300" width="70" height="30" as="geometry" />
        </mxCell>
        <mxCell id="0EJe0mb0kzmUWu9g-wrl-49" value="&lt;b&gt;2&lt;/b&gt;" style="text;html=1;align=center;verticalAlign=middle;whiteSpace=wrap;rounded=0;" vertex="1" parent="1">
          <mxGeometry x="490" y="280" width="30" height="30" as="geometry" />
        </mxCell>
        <mxCell id="0EJe0mb0kzmUWu9g-wrl-50" value="" style="rounded=0;whiteSpace=wrap;html=1;fillColor=#d5e8d4;strokeColor=#82b366;" vertex="1" parent="1">
          <mxGeometry x="520" y="280" width="70" height="70" as="geometry" />
        </mxCell>
        <mxCell id="0EJe0mb0kzmUWu9g-wrl-51" value="message 3" style="text;html=1;align=center;verticalAlign=middle;whiteSpace=wrap;rounded=0;" vertex="1" parent="1">
          <mxGeometry x="520" y="300" width="70" height="30" as="geometry" />
        </mxCell>
        <mxCell id="0EJe0mb0kzmUWu9g-wrl-52" value="&lt;b&gt;3&lt;/b&gt;" style="text;html=1;align=center;verticalAlign=middle;whiteSpace=wrap;rounded=0;" vertex="1" parent="1">
          <mxGeometry x="560" y="280" width="30" height="30" as="geometry" />
        </mxCell>
        <mxCell id="0EJe0mb0kzmUWu9g-wrl-53" value="Partition Follower Replica" style="text;html=1;align=center;verticalAlign=middle;whiteSpace=wrap;rounded=0;" vertex="1" parent="1">
          <mxGeometry x="415" y="250" width="140" height="30" as="geometry" />
        </mxCell>
        <mxCell id="0EJe0mb0kzmUWu9g-wrl-54" value="" style="rounded=1;whiteSpace=wrap;html=1;fillColor=#dae8fc;strokeColor=#6c8ebf;" vertex="1" parent="1">
          <mxGeometry x="220" y="390" width="250" height="160" as="geometry" />
        </mxCell>
        <mxCell id="0EJe0mb0kzmUWu9g-wrl-55" value="&lt;b style=&quot;font-size: 15px;&quot;&gt;Kafka Broker&lt;br&gt;Node 3&lt;/b&gt;" style="text;html=1;align=center;verticalAlign=middle;whiteSpace=wrap;rounded=0;" vertex="1" parent="1">
          <mxGeometry x="290" y="400" width="110" height="30" as="geometry" />
        </mxCell>
        <mxCell id="0EJe0mb0kzmUWu9g-wrl-56" value="" style="rounded=0;whiteSpace=wrap;html=1;fillColor=#d5e8d4;strokeColor=#82b366;" vertex="1" parent="1">
          <mxGeometry x="240" y="470" width="70" height="70" as="geometry" />
        </mxCell>
        <mxCell id="0EJe0mb0kzmUWu9g-wrl-57" value="message 1" style="text;html=1;align=center;verticalAlign=middle;whiteSpace=wrap;rounded=0;" vertex="1" parent="1">
          <mxGeometry x="240" y="490" width="70" height="30" as="geometry" />
        </mxCell>
        <mxCell id="0EJe0mb0kzmUWu9g-wrl-58" value="&lt;b&gt;1&lt;/b&gt;" style="text;html=1;align=center;verticalAlign=middle;whiteSpace=wrap;rounded=0;" vertex="1" parent="1">
          <mxGeometry x="280" y="470" width="30" height="30" as="geometry" />
        </mxCell>
        <mxCell id="0EJe0mb0kzmUWu9g-wrl-59" value="" style="rounded=0;whiteSpace=wrap;html=1;fillColor=#d5e8d4;strokeColor=#82b366;" vertex="1" parent="1">
          <mxGeometry x="310" y="470" width="70" height="70" as="geometry" />
        </mxCell>
        <mxCell id="0EJe0mb0kzmUWu9g-wrl-60" value="message 2" style="text;html=1;align=center;verticalAlign=middle;whiteSpace=wrap;rounded=0;" vertex="1" parent="1">
          <mxGeometry x="310" y="490" width="70" height="30" as="geometry" />
        </mxCell>
        <mxCell id="0EJe0mb0kzmUWu9g-wrl-61" value="&lt;b&gt;2&lt;/b&gt;" style="text;html=1;align=center;verticalAlign=middle;whiteSpace=wrap;rounded=0;" vertex="1" parent="1">
          <mxGeometry x="350" y="470" width="30" height="30" as="geometry" />
        </mxCell>
        <mxCell id="0EJe0mb0kzmUWu9g-wrl-62" value="" style="rounded=0;whiteSpace=wrap;html=1;fillColor=#ffe6cc;strokeColor=#d79b00;" vertex="1" parent="1">
          <mxGeometry x="380" y="470" width="70" height="70" as="geometry" />
        </mxCell>
        <mxCell id="0EJe0mb0kzmUWu9g-wrl-64" value="&lt;b&gt;3&lt;/b&gt;" style="text;html=1;align=center;verticalAlign=middle;whiteSpace=wrap;rounded=0;" vertex="1" parent="1">
          <mxGeometry x="420" y="470" width="30" height="30" as="geometry" />
        </mxCell>
        <mxCell id="0EJe0mb0kzmUWu9g-wrl-65" value="Partition Follower Replica" style="text;html=1;align=center;verticalAlign=middle;whiteSpace=wrap;rounded=0;" vertex="1" parent="1">
          <mxGeometry x="275" y="440" width="140" height="30" as="geometry" />
        </mxCell>
      </root>
    </mxGraphModel>
  </diagram>
</mxfile>
